<?xml version="1.0" encoding="UTF-8" standalone="no"?>
<!-- Created with Inkscape (http://www.inkscape.org/) -->

<svg
   width="0.59039259in"
   height="0.24859571in"
   viewBox="0 0 14.995972 6.314331"
   version="1.1"
   id="svg5"
   xmlns="http://www.w3.org/2000/svg"
   xmlns:svg="http://www.w3.org/2000/svg">
  <defs
     id="defs2" />
  <g
     id="layer1"
     style="display:inline"
     transform="translate(-269.40732,-102.1519)">
    <path
       id="text5333"
       style="font-style:normal;font-variant:normal;font-weight:500;font-stretch:normal;font-size:6.88493px;line-height:3.2;font-family:'Neue Haas Grotesk Text Pro';-inkscape-font-specification:'Neue Haas Grotesk Text Pro Medium';letter-spacing:-0.352849px;fill:#00aa00;fill-rule:evenodd;stroke:none;stroke-width:0.211667;stroke-miterlimit:4.2;stop-color:#000000"
       d="m 272.05268,103.58214 v 0.84679 h 0.89491 v -0.84679 z m -4.48525,1.3493 c -0.28457,0 -0.54411,0.0505 -0.7782,0.15144 -0.2295,0.0964 -0.42695,0.23168 -0.59219,0.4061 -0.16065,0.17442 -0.28685,0.38121 -0.37865,0.61989 -0.0872,0.23409 -0.13098,0.48859 -0.13098,0.76399 0,0.27081 0.0438,0.52584 0.13098,0.76452 0.0918,0.23408 0.218,0.43813 0.37865,0.61255 0.16524,0.17442 0.36269,0.31246 0.59219,0.41344 0.23409,0.10098 0.49363,0.15143 0.7782,0.15143 0.28458,0 0.54157,-0.0505 0.77107,-0.15143 0.2295,-0.10098 0.42441,-0.23902 0.58506,-0.41344 0.16523,-0.17442 0.29144,-0.37847 0.37865,-0.61255 0.0872,-0.23868 0.13097,-0.49371 0.13097,-0.76452 0,-0.2754 -0.0438,-0.5299 -0.13097,-0.76399 -0.0872,-0.23868 -0.21342,-0.44547 -0.37865,-0.61989 -0.16065,-0.17442 -0.35556,-0.30971 -0.58506,-0.4061 -0.2295,-0.10098 -0.48649,-0.15144 -0.77107,-0.15144 z m 7.22399,0 c -0.22031,0 -0.42693,0.0438 -0.61971,0.131 -0.18818,0.0826 -0.35103,0.20184 -0.48873,0.35789 -0.1377,0.15606 -0.24813,0.34678 -0.33075,0.57169 -0.078,0.22032 -0.11721,0.46816 -0.11721,0.74355 0,0.2754 0.0417,0.52324 0.12435,0.74356 0.0826,0.21573 0.19508,0.39925 0.33737,0.55072 0.14688,0.15147 0.31634,0.26846 0.50912,0.35108 0.19737,0.0826 0.40856,0.12367 0.63347,0.12367 0.24786,0 0.45447,-0.0482 0.61971,-0.14463 0.16524,-0.0964 0.30518,-0.23612 0.41993,-0.41972 h 0.0209 c -0.005,0.0643 -0.009,0.1402 -0.0138,0.22741 v 0.28192 0.0896 c 0,0.53702 -0.29618,0.80539 -0.88829,0.80539 -0.49112,0 -0.76644,-0.15137 -0.82611,-0.45431 h -0.83986 c 0.0459,0.34884 0.21332,0.6172 0.50249,0.80539 0.28917,0.19277 0.68153,0.28924 1.17724,0.28924 0.26163,0 0.5003,-0.0299 0.71603,-0.0896 0.21573,-0.0597 0.39944,-0.15339 0.55091,-0.28191 0.14688,-0.12852 0.25935,-0.28708 0.33738,-0.47527 0.0826,-0.18819 0.12383,-0.41328 0.12383,-0.67491 v -3.43534 h -0.847 v 0.47527 h -0.0138 c -0.21573,-0.38097 -0.57806,-0.57169 -1.08755,-0.57169 z m 4.41798,0 c -0.26163,0 -0.4886,0.0549 -0.68138,0.16506 -0.18819,0.10557 -0.34187,0.26191 -0.46121,0.46846 h -0.0209 v -0.5371 h -0.85362 v 3.67638 h 0.87452 v -2.15469 c 0,-0.12852 0.0204,-0.24773 0.0617,-0.35789 0.0413,-0.11016 0.0988,-0.20441 0.17226,-0.28243 0.0734,-0.0826 0.16097,-0.14471 0.26195,-0.18602 0.10098,-0.0459 0.21293,-0.0686 0.33686,-0.0686 0.22491,0 0.39743,0.0616 0.51677,0.1855 0.12392,0.12393 0.1855,0.29634 0.1855,0.51666 v 2.34752 h 0.87452 v -2.49214 c 0,-0.39933 -0.11246,-0.71148 -0.33737,-0.93639 -0.22032,-0.2295 -0.53024,-0.34427 -0.92956,-0.34427 z m -7.59551,0.0414 c -0.46818,0 -0.81932,0.23843 -1.05341,0.71578 h -0.0209 v -0.66076 h -0.84649 v 3.67638 h 0.87401 v -1.845 c 0,-0.35343 0.0967,-0.62401 0.28947,-0.8122 0.19278,-0.19278 0.43349,-0.28703 0.72265,-0.28244 0.0872,0 0.16762,0.009 0.24106,0.0272 h 0.0275 v -0.78443 c -0.0505,-0.0229 -0.12835,-0.0346 -0.23392,-0.0346 z m 0.45255,0.055 v 3.67638 h 0.87452 v -3.67638 z m -4.50614,0.55072 c 0.16065,0 0.30059,0.0322 0.41993,0.0964 0.12393,0.0643 0.22724,0.15628 0.30986,0.27562 0.0826,0.11475 0.1447,0.25227 0.18601,0.41291 0.0459,0.15606 0.0688,0.32573 0.0688,0.50933 0,0.1836 -0.0229,0.35379 -0.0688,0.50985 -0.0413,0.15606 -0.10339,0.29135 -0.18601,0.4061 -0.0826,0.11475 -0.18593,0.20403 -0.30986,0.26829 -0.11934,0.0643 -0.25928,0.0964 -0.41993,0.0964 -0.16065,0 -0.30314,-0.0322 -0.42707,-0.0964 -0.12393,-0.0643 -0.22724,-0.15354 -0.30986,-0.26829 -0.0826,-0.11475 -0.14419,-0.25004 -0.1855,-0.4061 -0.0413,-0.15606 -0.0622,-0.32625 -0.0622,-0.50985 0,-0.1836 0.0209,-0.35327 0.0622,-0.50933 0.0413,-0.16064 0.10289,-0.29816 0.1855,-0.41291 0.0826,-0.11934 0.18593,-0.21136 0.30986,-0.27562 0.12393,-0.0643 0.26642,-0.0964 0.42707,-0.0964 z m 7.43039,0.0346 c 0.3167,0 0.5508,0.10091 0.70227,0.30287 0.15147,0.19737 0.22729,0.46128 0.22729,0.79176 0,0.16065 -0.0183,0.3098 -0.055,0.4475 -0.0321,0.1377 -0.085,0.25691 -0.15849,0.35789 -0.0734,0.0964 -0.16962,0.17456 -0.28896,0.23423 -0.11475,0.0551 -0.2547,0.0828 -0.41994,0.0828 -0.28916,0 -0.51206,-0.0987 -0.66812,-0.29606 -0.15147,-0.20196 -0.22679,-0.47307 -0.22679,-0.81272 0,-0.33966 0.0753,-0.60802 0.22679,-0.80539 0.15147,-0.20196 0.37182,-0.30287 0.66099,-0.30287 z"
       transform="scale(1.0140011,0.98619222)" />
  </g>
</svg>
